<?xml version="1.0" encoding="utf-8"?>
<!-- Generator: Adobe Illustrator 16.0.0, SVG Export Plug-In . SVG Version: 6.00 Build 0)  -->
<!DOCTYPE svg PUBLIC "-//W3C//DTD SVG 1.1//EN" "http://www.w3.org/Graphics/SVG/1.1/DTD/svg11.dtd">
<svg version="1.1" id="Layer_1" xmlns="http://www.w3.org/2000/svg" xmlns:xlink="http://www.w3.org/1999/xlink" x="0px" y="0px"
	 width="500px" height="500px" viewBox="0 0 500 500" enable-background="new 0 0 500 500" xml:space="preserve">
<g>
	<path fill-rule="evenodd" clip-rule="evenodd" fill="#666666" d="M250.171,121.327c47.365,0,94.664-0.011,142.098,0.006
		c17.922,0.007,31.9,11.028,35.988,28.454c0.487,2.468,0.511,5.103,0.512,7.691c0.153,61.606-0.105,123.28,0.231,184.885
		c0.053,16.297-12.309,36.014-36.037,36.061c-95.118,0.323-190.304,0.248-285.421,0.185c-20.62-0.014-36.528-16.438-36.532-37.102
		c-0.013-61.054-0.012-121.971-0.001-182.957c0.004-21.333,15.838-37.208,37.064-37.217
		C155.438,121.314,202.805,121.327,250.171,121.327z M107.476,140.701c-0.182,0.34-0.438,0.68-0.624,0.953
		c1.194,1.306,2.368,2.563,3.588,3.781c43.805,44.054,87.758,88.101,131.564,132.16c6.387,6.337,9.422,6.409,15.683,0.115
		c22.711-22.832,45.401-45.749,68.107-68.653c21.032-21.288,42.076-42.497,63.1-63.792c1.245-1.186,2.081-2.578,3.752-4.563
		C296.843,140.701,202.125,140.701,107.476,140.701z M372.688,358.742c-1.651-1.786-2.418-2.841-3.403-3.808
		c-26.624-25.865-53.278-51.699-79.854-77.613c-2.956-2.779-4.539-2.545-7.263,0.236c-8.831,9.153-17.897,18.215-27.176,27.055
		c-4.245,4.167-6.897,3.878-11.084-0.169c-9.687-9.736-19.471-19.445-29.075-29.264c-2.554-2.525-4.022-2.875-6.799-0.065
		c-26.274,26.711-52.78,53.461-79.181,80.112c-0.881,0.82-1.592,1.877-2.845,3.516C208.423,358.742,289.942,358.742,372.688,358.742
		z M408.805,150.9c-2.146,1.906-3.46,2.908-4.548,3.999c-7.119,7.206-14.345,14.508-21.462,21.717
		c-26.456,26.547-52.784,53.086-79.243,79.63c-3.792,3.805-3.79,3.813,0.043,7.646c30.348,30.216,60.698,60.565,90.913,90.914
		c0.564,0.431,1.027,0.837,1.555,1.432c1.498,1.885,3.227,1.888,5.299,0.71c5.667-3.497,8.489-8.637,8.49-15.292
		c0.004-61.212,0.007-122.424-0.021-183.636C409.83,156.071,409.361,154.055,408.805,150.9z M91.983,152.943
		c-0.362,0.177-0.723,0.354-1.083,0.53c-0.036,1.285-0.206,2.636-0.207,3.988c0,61.749,0.002,123.564-0.087,185.244
		c-0.002,5.088,2.058,8.813,5.564,12.222c2.78,2.707,4.91,2.777,7.852-0.101c30.581-30.674,61.22-61.155,91.975-91.587
		c2.653-2.705,2.726-4.185,0.004-6.898c-33.624-33.454-67.177-67.045-100.757-100.611C94.224,154.711,93.049,153.848,91.983,152.943
		z"/>
</g>
<path fill-rule="evenodd" clip-rule="evenodd" fill="none" stroke="#666666" stroke-width="17" stroke-miterlimit="10" d="
	M484.5,444.168c0,17.666-3.966,41.332-19.794,41.332H52.023c-15.827,0-37.523-23.666-37.523-41.332V38.144
	C14.5,20.478,36.196,15.5,52.023,15.5h412.683c15.828,0,19.794,4.978,19.794,22.644V444.168z"/>
</svg>
