<?xml version="1.0" encoding="utf-8"?>
<!-- Generator: Adobe Illustrator 16.0.0, SVG Export Plug-In . SVG Version: 6.00 Build 0)  -->
<!DOCTYPE svg PUBLIC "-//W3C//DTD SVG 1.1//EN" "http://www.w3.org/Graphics/SVG/1.1/DTD/svg11.dtd">
<svg version="1.1" xmlns="http://www.w3.org/2000/svg" xmlns:xlink="http://www.w3.org/1999/xlink" x="0px" y="0px" width="500px"
	 height="500px" viewBox="0 0 500 500" enable-background="new 0 0 500 500" xml:space="preserve">
<g id="Layer_1">
	<path fill-rule="evenodd" clip-rule="evenodd" fill="none" stroke="#666666" stroke-width="17" stroke-miterlimit="10" d="
		M484.5,444.168c0,17.666-3.966,41.332-19.794,41.332H52.023c-15.827,0-37.523-23.666-37.523-41.332V38.144
		C14.5,20.478,36.196,15.5,52.023,15.5h412.683c15.828,0,19.794,4.978,19.794,22.644V444.168z"/>
</g>
<g id="Layer_3" display="none">
	<g display="inline">
		<path fill-rule="evenodd" clip-rule="evenodd" fill="#666666" d="M250.171,121.327c47.365,0,94.664-0.011,142.098,0.006
			c17.922,0.007,31.9,11.028,35.988,28.454c0.487,2.468,0.511,5.103,0.512,7.691c0.153,61.606-0.105,123.28,0.231,184.885
			c0.053,16.297-12.309,36.014-36.037,36.061c-95.118,0.323-190.304,0.248-285.421,0.185c-20.62-0.014-36.528-16.438-36.532-37.102
			c-0.013-61.054-0.012-121.971-0.001-182.957c0.004-21.333,15.838-37.208,37.064-37.217
			C155.438,121.314,202.805,121.327,250.171,121.327z M107.476,140.701c-0.182,0.34-0.438,0.68-0.624,0.953
			c1.194,1.306,2.368,2.563,3.588,3.781c43.805,44.054,87.758,88.101,131.564,132.16c6.387,6.337,9.422,6.409,15.683,0.115
			c22.711-22.832,45.401-45.749,68.107-68.653c21.032-21.288,42.076-42.497,63.1-63.792c1.245-1.186,2.081-2.578,3.752-4.563
			C296.843,140.701,202.125,140.701,107.476,140.701z M372.688,358.742c-1.651-1.786-2.418-2.841-3.403-3.808
			c-26.624-25.865-53.278-51.699-79.854-77.613c-2.956-2.779-4.539-2.545-7.263,0.236c-8.831,9.153-17.897,18.215-27.176,27.055
			c-4.245,4.167-6.897,3.878-11.084-0.169c-9.687-9.736-19.471-19.445-29.075-29.264c-2.554-2.525-4.022-2.875-6.799-0.065
			c-26.274,26.711-52.78,53.461-79.181,80.112c-0.881,0.82-1.592,1.877-2.845,3.516
			C208.423,358.742,289.942,358.742,372.688,358.742z M408.805,150.9c-2.146,1.906-3.46,2.908-4.548,3.999
			c-7.119,7.206-14.345,14.508-21.462,21.717c-26.456,26.547-52.784,53.086-79.243,79.63c-3.792,3.805-3.79,3.813,0.043,7.646
			c30.348,30.216,60.698,60.565,90.913,90.914c0.564,0.431,1.027,0.837,1.555,1.432c1.498,1.885,3.227,1.888,5.299,0.71
			c5.667-3.497,8.489-8.637,8.49-15.292c0.004-61.212,0.007-122.424-0.021-183.636C409.83,156.071,409.361,154.055,408.805,150.9z
			 M91.983,152.943c-0.362,0.177-0.723,0.354-1.083,0.53c-0.036,1.285-0.206,2.636-0.207,3.988
			c0,61.749,0.002,123.564-0.087,185.244c-0.002,5.088,2.058,8.813,5.564,12.222c2.78,2.707,4.91,2.777,7.852-0.101
			c30.581-30.674,61.22-61.155,91.975-91.587c2.653-2.705,2.726-4.185,0.004-6.898c-33.624-33.454-67.177-67.045-100.757-100.611
			C94.224,154.711,93.049,153.848,91.983,152.943z"/>
	</g>
</g>
<g id="Layer_2" display="none">
	<g display="inline">
		<path fill-rule="evenodd" clip-rule="evenodd" fill="#666666" d="M216.812,202.423c0,62.16,0,123.639,0,184.745
			c18.844,0,37.456,0,56.244,0c0-1.752,0-2.961,0-4.168c0-31.885-0.024-63.769,0.032-95.652c0.007-3.742,0.268-7.509,0.741-11.222
			c1.403-10.989,6.314-17.547,15.852-18.969c7.741-1.155,15.838-1.538,23.591-0.646c12.454,1.434,18.987,8.122,21.237,20.05
			c0.841,4.46,1.239,9.066,1.255,13.608c0.104,31.274,0.055,62.55,0.055,93.824c0,1.183,0.001,2.365,0.001,3.237
			c18.469,0,36.559,0,54.846,0c0-1.79,0-2.995,0-4.2c0-39.499,0.016-78.999-0.023-118.498c-0.004-4.357-0.074-8.742-0.537-13.068
			c-2.089-19.549-11.282-34.545-30.133-41.375c-27.834-10.086-54.273-7.354-77.914,11.828c-3.79,3.075-7.392,6.384-11.603,10.038
			c0-10.386,0-20.08,0-29.532C252.412,202.423,234.693,202.423,216.812,202.423z M112.976,202.405c0,62.042,0,123.596,0,184.761
			c18.845,0,37.455,0,55.992,0c0-62.059,0-123.539,0-184.761C150.185,202.405,131.647,202.405,112.976,202.405z M141.595,113.398
			c-17.196-0.002-31.143,13.873-31.04,30.882c0.103,16.989,13.838,30.748,30.809,30.863c17.094,0.116,31.087-13.717,31.144-30.787
			C172.565,127.219,158.767,113.401,141.595,113.398z"/>
		<path fill-rule="evenodd" clip-rule="evenodd" fill="#666666" d="M216.812,202.423c17.881,0,35.6,0,53.643,0
			c0,9.452,0,19.146,0,29.532c4.211-3.653,7.813-6.962,11.603-10.038c23.641-19.181,50.08-21.914,77.914-11.828
			c18.851,6.83,28.044,21.826,30.133,41.375c0.463,4.326,0.533,8.711,0.537,13.068c0.039,39.499,0.023,78.999,0.023,118.498
			c0,1.205,0,2.41,0,4.2c-18.287,0-36.377,0-54.846,0c0-0.872-0.001-2.055-0.001-3.237c0-31.274,0.05-62.55-0.055-93.824
			c-0.016-4.542-0.414-9.148-1.255-13.608c-2.25-11.928-8.783-18.616-21.237-20.05c-7.753-0.893-15.85-0.51-23.591,0.646
			c-9.537,1.422-14.448,7.979-15.852,18.969c-0.474,3.713-0.734,7.479-0.741,11.222c-0.057,31.884-0.032,63.768-0.032,95.652
			c0,1.207,0,2.416,0,4.168c-18.788,0-37.4,0-56.244,0C216.812,326.063,216.812,264.583,216.812,202.423z"/>
		<path fill-rule="evenodd" clip-rule="evenodd" fill="#666666" d="M112.976,202.405c18.671,0,37.209,0,55.992,0
			c0,61.222,0,122.702,0,184.761c-18.537,0-37.146,0-55.992,0C112.976,326.001,112.976,264.447,112.976,202.405z"/>
		<path fill-rule="evenodd" clip-rule="evenodd" fill="#666666" d="M141.595,113.398c17.171,0.003,30.97,13.821,30.913,30.959
			c-0.057,17.069-14.05,30.902-31.144,30.787c-16.971-0.115-30.706-13.875-30.809-30.863
			C110.453,127.271,124.399,113.396,141.595,113.398z"/>
	</g>
</g>
<g id="Layer_4">
	<g>
		<path fill-rule="evenodd" clip-rule="evenodd" fill="#666666" d="M339.841,411.013c-18.029,0.128-29.519-2.786-40.74-6.688
			c-10.938-3.812-21.786-7.896-32.6-12.032c-21.114-8.049-40.02-19.918-57.638-33.914c-23.58-18.742-44.499-40.14-63.941-63.126
			c-24.086-28.49-38.133-61.938-49.51-96.834c-3.784-11.611-6.362-23.43-5.486-35.728c1.695-23.723,11.673-43.776,27.774-60.896
			c2.464-2.62,5.89-4.963,9.301-5.94c9.169-2.633,18.548-4.578,27.894-6.556c5.987-1.264,10.305,1.336,13.207,6.603
			c4.181,7.58,8.318,15.188,12.674,22.666c7.031,12.083,14.215,24.069,21.342,36.101c0.813,1.375,1.627,2.744,2.444,4.119
			c3.34,5.597,3.163,11.121-1.35,15.805c-5.262,5.451-10.93,10.515-16.548,15.613c-5.423,4.917-11.098,9.563-16.5,14.504
			c-4.782,4.374-6.234,9.762-2.771,15.473c8.891,14.683,17.324,29.71,27.261,43.663c17.185,24.119,39.6,42.745,65.006,57.786
			c7.104,4.194,14.347,8.157,21.604,12.066c5.273,2.842,10.166,1.801,14.175-2.45c4.937-5.218,9.598-10.713,14.382-16.075
			c4.7-5.268,9.107-10.828,14.187-15.7c7.232-6.922,11.744-7.018,20.407-1.911c15.814,9.346,31.674,18.611,47.538,27.892
			c4.711,2.758,9.503,5.363,14.207,8.138c4.029,2.364,5.898,5.813,5.558,10.656c-0.788,11.001-3.157,21.609-7.544,31.697
			c-1.241,2.852-3.298,5.591-5.595,7.709C380.284,400.453,358.95,410.273,339.841,411.013z"/>
	</g>
</g>
</svg>
